Funny People (2009) DVDRip XviD-MAX (BEST QUALITY) 
http://torrents.thepiratebay.org/5182403/Funny_People_(2009)_DVDRip_XviD-MAX.5182403.TPB.torrent

Format                           : AVI
Format/Info                      : Audio Video Interleave
File size                        : 1.37 GiB
Duration                         : 2h 19mn
Overall bit rate                 : 1 406 Kbps
Writing application              : VirtualDubMod 1.5.4.1 (build 2178/release)
Writing library                  : VirtualDubMod build 2178/release
Original source form             : MAX TORRENTZ
Copyright                        : SIGISMUNT

Video
Format                           : MPEG-4 Visual
Format profile                   : Streaming Video@L1
Format settings, BVOP            : Yes
Format settings, QPel            : No
Format settings, GMC             : No warppoints
Format settings, Matrix          : Custom
Codec ID                         : XVID
Codec ID/Hint                    : XviD
Duration                         : 2h 19mn
Bit rate                         : 1 280 Kbps
Width                            : 704 pixels
Height                           : 384 pixels
Display aspect ratio             : 16/9
Frame rate                       : 29.970 fps
Resolution                       : 24 bits
Colorimetry                      : 4:2:0
Scan type                        : Progressive
Bits/(Pixel*Frame)               : 0.158
Stream size                      : 1.24 GiB (91%)
Writing library                  : XviD 1.2.1 (UTC 2008-12-04)

Audio
Format                           : MPEG Audio
Format version                   : Version 1
Format profile                   : Layer 3
Codec ID                         : 55
Codec ID/Hint                    : MP3
Duration                         : 2h 19mn
Bit rate mode                    : Variable
Bit rate                         : 112 Kbps
Nominal bit rate                 : 128 Kbps
Channel(s)                       : 2 channels
Sampling rate                    : 48.0 KHz
Resolution                       : 16 bits
Stream size                      : 111 MiB (8%)
Alignment                        : Aligned on interleaves
Interleave, duration             : 24 ms (0.72 video frame)
Interleave, preload duration     : 541 ms
Writing library                  : LAME3.98r
Encoding settings                : -m j -V 4 -q 2 -lowpass 17 --abr 128

Screens: 
http://www.postimg.com/image/6000/5600.jpg 
http://www.postimg.com/image/6000/5601.jpg 
http://www.postimg.com/image/6000/5602.jpg

ScreenCaps: 
http://www.postimg.com/image/6000/5603.jpg


